<?xml version="1.0" standalone="no"?>
<!DOCTYPE svg PUBLIC "-//W3C//DTD SVG 20010904//EN"
 "http://www.w3.org/TR/2001/REC-SVG-20010904/DTD/svg10.dtd">
<svg version="1.0" xmlns="http://www.w3.org/2000/svg"
 width="436.000000pt" height="436.000000pt" viewBox="0 0 436.000000 436.000000"
 preserveAspectRatio="xMidYMid meet">
<metadata>
Created by potrace 1.11, written by Peter Selinger 2001-2013
</metadata>
<g transform="translate(0.000000,436.000000) scale(0.100000,-0.100000)"
fill="#000000" stroke="none">
<path d="M2257 3465 c3 -77 7 -143 9 -146 2 -4 21 -9 43 -13 l39 -6 6 -97 c11
-159 19 -183 27 -78 4 50 7 128 8 173 l1 84 -40 -7 c-35 -6 -40 -4 -45 17 -3
13 -17 66 -30 118 l-24 95 6 -140z"/>
<path d="M323 2698 c5 -787 9 -910 47 -1183 61 -435 235 -796 511 -1060 252
-241 538 -373 936 -432 146 -21 550 -24 688 -5 241 35 408 83 590 172 154 75
274 160 401 285 117 116 175 190 260 331 116 194 176 359 219 609 57 329 75
673 75 1473 l0 592 -535 0 -535 0 0 -314 c0 -300 -1 -315 -19 -321 -10 -3 -23
-5 -27 -3 -5 1 -24 -2 -43 -6 -18 -5 -45 -10 -60 -11 -14 -2 -46 -6 -70 -9
-59 -8 -582 -152 -618 -171 -15 -8 -33 -15 -40 -15 -6 0 -24 -6 -40 -14 -46
-24 -131 -56 -147 -56 -8 0 -16 -4 -18 -8 -3 -9 -113 -62 -128 -62 -6 0 -10
-4 -10 -10 0 -5 -10 -11 -22 -11 -17 -1 -18 -3 -6 -6 9 -2 45 9 80 25 35 16
74 32 88 36 14 4 39 14 55 21 17 7 51 19 78 25 26 7 47 16 47 20 0 4 17 11 38
15 20 4 57 15 82 26 50 21 486 142 510 141 8 0 32 4 53 10 21 5 55 11 75 14
36 4 99 20 128 31 11 4 14 -11 14 -89 0 -88 -2 -95 -22 -106 -30 -16 -823
-232 -851 -232 -12 0 -44 -7 -71 -15 -26 -8 -52 -13 -56 -10 -5 3 -20 1 -34
-5 -25 -9 -104 -21 -158 -23 -35 -1 -35 -18 -3 -53 14 -15 25 -31 25 -37 0 -5
11 -20 25 -33 14 -13 25 -27 25 -32 0 -5 11 -20 24 -34 12 -14 26 -33 29 -42
4 -9 11 -16 17 -16 5 0 10 -10 10 -23 0 -32 19 -70 47 -90 28 -22 32 -4 7 31
-22 32 -13 37 20 11 15 -12 29 -19 32 -16 3 3 -3 38 -14 79 -22 78 -29 223
-12 233 6 4 8 10 5 15 -3 5 18 15 47 23 162 46 210 58 216 53 3 -3 -2 -6 -11
-6 -9 0 -17 -4 -17 -9 0 -5 -10 -11 -23 -15 -30 -7 -73 -46 -81 -74 -13 -40 4
-43 45 -8 39 33 99 55 168 61 42 4 51 14 40 44 -7 18 -14 22 -34 17 -14 -4
-25 -4 -25 -2 0 3 19 10 43 17 23 6 44 14 47 18 6 9 153 49 201 55 19 3 48 7
64 10 25 5 26 5 8 -3 -23 -11 -25 -37 -2 -52 19 -12 42 -11 34 1 -3 6 2 10 12
10 11 0 25 6 31 13 8 7 45 12 102 13 l90 1 0 -232 0 -232 -50 -7 c-27 -4 -52
-11 -55 -16 -3 -6 1 -7 9 -4 27 10 19 -43 -11 -75 -23 -25 -52 -36 -161 -66
-138 -38 -188 -40 -217 -12 -16 16 -20 42 -7 50 4 2 1 2 -6 0 -8 -1 -19 -3
-26 -3 -7 0 -23 -10 -35 -21 -18 -17 -22 -29 -18 -55 3 -18 12 -40 19 -49 36
-42 87 -91 106 -103 29 -16 131 -39 162 -35 14 2 40 4 58 5 17 1 32 5 32 10 0
4 16 10 35 14 19 3 35 10 35 14 0 4 16 15 35 26 19 10 35 22 35 26 0 5 10 18
21 29 l22 22 -7 -64 c-12 -107 -27 -187 -40 -204 -11 -15 -17 -14 -66 15 -59
35 -53 37 -96 -41 l-26 -46 -36 18 c-30 14 -38 15 -40 4 -3 -12 35 -164 42
-172 1 -2 33 6 71 17 38 11 70 18 72 17 1 -2 -15 -28 -38 -58 l-40 -55 -103
-28 c-98 -26 -103 -28 -98 -52 2 -13 8 -24 12 -24 22 0 -7 -43 -37 -55 -44
-19 -42 -19 -37 8 3 18 2 17 -8 -5 -15 -35 -75 -55 -212 -69 -177 -19 -364 21
-503 107 -188 117 -309 329 -342 604 -7 52 -15 106 -18 120 -3 14 -8 390 -12
835 l-6 810 -538 3 -539 2 5 -782z m2657 -128 l0 -41 -27 15 c-17 8 -53 13
-90 12 -34 0 -59 1 -57 4 6 6 143 47 162 49 8 1 12 -13 12 -39z"/>
<path d="M2853 2393 c-27 -5 -53 -39 -53 -70 0 -24 19 -72 29 -74 10 -1 35 -7
46 -10 20 -6 51 12 67 38 21 37 4 87 -36 108 -15 8 -29 14 -30 14 0 -1 -11 -4
-23 -6z m69 -98 c0 -5 -5 -11 -11 -13 -6 -2 -11 4 -11 13 0 9 5 15 11 13 6 -2
11 -8 11 -13z"/>
<path d="M2291 2219 c-26 -28 -27 -33 -18 -69 19 -68 94 -81 133 -22 33 49 8
104 -54 116 -28 5 -37 1 -61 -25z m39 -89 c0 -5 -4 -10 -9 -10 -6 0 -13 5 -16
10 -3 6 1 10 9 10 9 0 16 -4 16 -10z"/>
<path d="M2825 2000 c-19 -8 -19 -9 3 -9 12 -1 22 4 22 9 0 6 -1 10 -2 9 -2 0
-12 -4 -23 -9z"/>
<path d="M2745 1965 c-39 -17 -21 -18 25 0 19 7 28 14 20 14 -8 0 -28 -6 -45
-14z"/>
<path d="M2615 1930 c-13 -6 -15 -9 -5 -9 8 0 22 4 30 9 18 12 2 12 -25 0z"/>
<path d="M2540 1920 c-8 -5 -10 -10 -5 -10 6 0 17 5 25 10 8 5 11 10 5 10 -5
0 -17 -5 -25 -10z"/>
<path d="M2489 1529 c-1 -13 -3 -42 -4 -63 -1 -22 8 -76 20 -120 l22 -81 33 3
c19 1 36 5 39 8 3 2 -5 44 -18 92 -13 48 -25 104 -27 126 -4 46 -2 43 -37 51
-23 6 -27 4 -28 -16z"/>
</g>
</svg>
