<?xml version="1.0" standalone="no"?>
<!DOCTYPE svg PUBLIC "-//W3C//DTD SVG 20010904//EN"
 "http://www.w3.org/TR/2001/REC-SVG-20010904/DTD/svg10.dtd">
<svg version="1.0" xmlns="http://www.w3.org/2000/svg"
 width="16.000000pt" height="16.000000pt" viewBox="0 0 16.000000 16.000000"
 preserveAspectRatio="xMidYMid meet">
<metadata>
Created by potrace 1.11, written by Peter Selinger 2001-2013
</metadata>
<g transform="translate(0.000000,16.000000) scale(0.001563,-0.001563)"
fill="#000000" stroke="none">
<path d="M0 5120 l0 -5120 5120 0 5120 0 0 5120 0 5120 -5120 0 -5120 0 0
-5120z m5530 4420 c1098 -51 1942 -328 2640 -866 232 -179 549 -519 721 -776
412 -611 656 -1373 739 -2300 12 -140 30 -540 30 -695 l0 -113 -3555 0 -3555
0 5 -57 c2 -32 7 -126 10 -209 9 -271 64 -621 139 -882 244 -846 829 -1410
1671 -1610 529 -126 1276 -117 1852 24 644 156 1164 510 1413 960 28 51 61
117 73 148 12 31 27 56 32 56 22 0 1648 -310 1653 -314 8 -9 -54 -142 -125
-266 -354 -620 -828 -1063 -1493 -1395 -451 -225 -996 -396 -1510 -474 -541
-82 -1284 -96 -1875 -35 -1409 144 -2463 695 -3084 1614 -342 506 -560 1106
-660 1820 -103 728 -86 1560 45 2205 128 630 391 1199 787 1698 100 127 391
418 517 518 516 409 1072 659 1805 813 556 116 1148 163 1725 136z"/>
<path d="M4895 8319 c-899 -84 -1516 -411 -1916 -1013 -87 -131 -191 -334
-240 -466 -69 -190 -137 -514 -154 -735 -3 -44 -8 -101 -11 -127 l-6 -48 2621
0 2621 0 0 35 c0 66 -40 345 -70 485 -111 525 -298 904 -599 1214 -372 382
-882 601 -1526 656 -141 12 -590 11 -720 -1z"/>
</g>
</svg>
