<?xml version="1.0" encoding="utf-8"?>
<!-- Generator: Adobe Illustrator 16.0.2, SVG Export Plug-In . SVG Version: 6.00 Build 0)  -->
<!DOCTYPE svg PUBLIC "-//W3C//DTD SVG 1.1//EN" "http://www.w3.org/Graphics/SVG/1.1/DTD/svg11.dtd">
<svg version="1.1" id="Calque_1" xmlns="http://www.w3.org/2000/svg" xmlns:xlink="http://www.w3.org/1999/xlink" x="0px" y="0px"
	 width="663.518px" height="142.807px" viewBox="5 0 663.518 142.807" enable-background="new 5 0 663.518 142.807"
	 xml:space="preserve">
<g>
	<path fill="#FFFFFF" d="M43.111,73.312c0,6.202,0.74,11.888,2.225,17.058c1.481,5.17,3.814,9.621,6.991,13.356
		c3.182,3.739,7.245,6.642,12.204,8.708c4.958,2.07,10.911,3.102,17.86,3.102c4.58,0,8.88-0.396,12.905-1.191
		c4.022-0.795,7.668-2.006,10.932-3.639c3.261-1.629,6.061-3.617,8.394-5.963c2.329-2.345,4.084-5.07,5.274-8.171l24.664,4.652
		c-1.614,3.737-3.962,7.532-7.057,11.39c-3.095,3.858-7.143,7.355-12.143,10.497c-4.998,3.142-11.04,5.724-18.111,7.755
		c-7.078,2.025-15.447,3.041-25.106,3.041c-22.121,0-39.013-5.506-50.665-16.521C19.827,106.371,14,89.853,14,67.824
		c0-12.244,1.924-22.521,5.785-30.834c3.856-8.308,8.961-14.985,15.32-20.037c6.356-5.047,13.643-8.648,21.864-10.795
		c8.221-2.146,16.698-3.219,25.423-3.219c11.525,0,21.442,1.651,29.75,4.949c8.301,3.301,15.128,7.931,20.465,13.896
		c5.342,5.964,9.283,13.102,11.827,21.41c2.542,8.312,3.814,17.474,3.814,27.494v2.622L43.111,73.312L43.111,73.312z
		 M121.042,56.496c-0.424-5.568-1.487-10.558-3.182-14.971c-1.696-4.415-4.09-8.15-7.181-11.213
		c-3.092-3.06-6.907-5.407-11.442-7.038c-4.534-1.629-9.896-2.444-16.08-2.444c-4.829,0-9.559,0.578-14.174,1.73
		c-4.62,1.152-8.772,3.1-12.46,5.842c-3.685,2.744-6.719,6.402-9.087,10.973c-2.376,4.576-3.732,10.279-4.07,17.119h77.676V56.496z"
		/>
	<path fill="#FFFFFF" d="M154.306,98.684v-6.516h26.575v6.516H154.306z"/>
	<path fill="#FFFFFF" d="M197.414,88.953c0,3.047,0.375,5.891,1.129,8.534c0.753,2.644,1.917,4.921,3.491,6.828
		c1.576,1.906,3.572,3.421,5.989,4.542c2.416,1.12,5.304,1.682,8.664,1.682c4.272,0,7.871-0.929,10.795-2.785
		c2.922-1.854,4.962-4.342,6.118-7.457l6.932,1.209c-0.595,1.541-1.47,3.178-2.624,4.912c-1.155,1.73-2.679,3.308-4.568,4.725
		c-1.893,1.419-4.211,2.609-6.96,3.572c-2.749,0.964-6.067,1.445-9.953,1.445c-4.063,0-7.738-0.623-11.029-1.865
		c-3.293-1.242-6.084-3.101-8.377-5.567c-2.293-2.468-4.072-5.506-5.332-9.11c-1.261-3.607-1.89-7.793-1.89-12.554
		c0-5.287,0.762-9.733,2.284-13.341c1.523-3.605,3.528-6.521,6.013-8.745c2.485-2.224,5.314-3.808,8.482-4.753
		c3.169-0.946,6.382-1.419,9.637-1.419c4.377,0,8.158,0.702,11.345,2.103c3.186,1.399,5.803,3.369,7.852,5.908
		s3.563,5.54,4.542,9.008c0.981,3.465,1.474,7.282,1.474,11.448v1.683h-44.012V88.953z M216.215,64.426
		c-2.346,0-4.614,0.342-6.801,1.023c-2.188,0.684-4.131,1.785-5.829,3.309c-1.699,1.523-3.091,3.494-4.175,5.91
		c-1.087,2.416-1.701,5.355-1.84,8.821h36.503c-0.209-2.94-0.709-5.584-1.496-7.93c-0.789-2.345-1.909-4.343-3.363-5.987
		c-1.453-1.646-3.247-2.916-5.383-3.808C221.695,64.871,219.157,64.426,216.215,64.426z"/>
	<path fill="#FFFFFF" d="M256.13,115.057V36.273h7.458v78.783H256.13z"/>
	<path fill="#FFFFFF" d="M286.07,88.953c0,3.047,0.375,5.891,1.129,8.534c0.753,2.644,1.917,4.921,3.491,6.828
		c1.576,1.906,3.572,3.421,5.989,4.542c2.416,1.12,5.304,1.682,8.664,1.682c4.271,0,7.87-0.929,10.795-2.785
		c2.922-1.854,4.962-4.342,6.118-7.457l6.932,1.209c-0.595,1.541-1.471,3.178-2.624,4.912c-1.156,1.73-2.68,3.308-4.568,4.725
		c-1.894,1.419-4.212,2.609-6.961,3.572c-2.748,0.964-6.066,1.445-9.952,1.445c-4.063,0-7.738-0.623-11.029-1.865
		c-3.293-1.242-6.084-3.101-8.377-5.567c-2.293-2.468-4.071-5.506-5.331-9.11c-1.261-3.607-1.89-7.793-1.89-12.554
		c0-5.287,0.762-9.733,2.283-13.341c1.523-3.605,3.527-6.521,6.013-8.745s5.313-3.808,8.482-4.753
		c3.169-0.946,6.382-1.419,9.637-1.419c4.378,0,8.158,0.702,11.346,2.103c3.186,1.399,5.804,3.369,7.852,5.908
		c2.049,2.539,3.563,5.54,4.542,9.008c0.981,3.465,1.474,7.282,1.474,11.448v1.683H286.07V88.953z M304.871,64.426
		c-2.346,0-4.613,0.342-6.801,1.023c-2.188,0.684-4.131,1.785-5.829,3.309s-3.091,3.494-4.175,5.91
		c-1.087,2.416-1.701,5.355-1.84,8.821h36.503c-0.209-2.94-0.709-5.584-1.496-7.93c-0.789-2.345-1.909-4.343-3.363-5.987
		c-1.452-1.646-3.245-2.916-5.383-3.808C310.352,64.871,307.813,64.426,304.871,64.426z"/>
	<path fill="#FFFFFF" d="M391.372,99.144c-0.49,2.241-1.328,4.394-2.52,6.46c-1.189,2.064-2.766,3.877-4.729,5.436
		c-1.961,1.559-4.299,2.801-7.012,3.729c-2.715,0.928-5.838,1.393-9.375,1.393c-4.412,0-8.27-0.701-11.58-2.102
		c-3.309-1.4-6.041-3.363-8.193-5.883c-2.152-2.522-3.772-5.514-4.859-8.981c-1.084-3.466-1.626-7.266-1.626-11.396
		c0-4.516,0.595-8.568,1.785-12.159c1.188-3.589,2.924-6.626,5.2-9.111c2.273-2.485,5.051-4.396,8.322-5.726
		c3.275-1.33,7.014-1.996,11.215-1.996c3.432,0,6.494,0.429,9.189,1.285c2.697,0.859,5.008,2.033,6.934,3.521
		c1.926,1.49,3.492,3.239,4.703,5.253c1.205,2.014,2.037,4.176,2.492,6.487l-7.51,0.733c-0.668-3.362-2.322-6.146-4.965-8.352
		c-2.643-2.205-6.328-3.309-11.055-3.309c-3.045,0-5.744,0.525-8.088,1.576c-2.348,1.049-4.324,2.556-5.936,4.517
		c-1.611,1.96-2.82,4.341-3.625,7.144c-0.807,2.801-1.207,5.987-1.207,9.559c0,7.6,1.662,13.357,4.99,17.279
		c3.326,3.922,7.98,5.883,13.969,5.883c4.762,0,8.49-1.131,11.188-3.387c2.695-2.26,4.43-5.314,5.199-9.166L391.372,99.144z"/>
	<path fill="#FFFFFF" d="M418.054,115.949c-3.816,0-6.705-1.052-8.668-3.152c-1.961-2.103-2.939-5.305-2.939-9.61V65.58h-7.303
		v-5.828h7.461l2.416-12.711h4.883v12.711h12.606v5.828h-12.606v36.347c0,2.838,0.588,4.92,1.76,6.251
		c1.174,1.328,2.916,1.996,5.227,1.996c0.948,0,1.987-0.08,3.127-0.236c1.137-0.158,2.213-0.376,3.229-0.658v5.465
		c-1.4,0.35-2.869,0.637-4.41,0.863C421.292,115.834,419.698,115.949,418.054,115.949z"/>
	<path fill="#FFFFFF" d="M460.283,64.846c-2.488,0-4.668,0.621-6.541,1.865c-1.873,1.242-3.432,2.889-4.674,4.938
		c-1.244,2.048-2.172,4.412-2.783,7.092c-0.613,2.678-0.92,5.45-0.92,8.323v27.993h-7.457V73.459c0-1.226-0.01-2.59-0.025-4.097
		c-0.02-1.505-0.043-2.94-0.08-4.307c-0.033-1.365-0.063-2.539-0.078-3.521c-0.02-0.979-0.027-1.574-0.027-1.785h6.777
		c0,0.142,0.033,0.735,0.104,1.785c0.033,1.086,0.086,2.295,0.158,3.625c0.035,1.365,0.078,2.729,0.131,4.096
		c0.055,1.367,0.078,2.398,0.078,3.1h0.211c0.734-2.275,1.576-4.262,2.521-5.961c0.943-1.697,2.082-3.1,3.412-4.202
		c1.332-1.103,2.846-1.942,4.545-2.521c1.695-0.578,3.648-0.867,5.854-0.867c1.611,0,2.891,0.193,3.836,0.578v6.093
		c-0.633-0.244-1.377-0.411-2.232-0.499C462.234,64.89,461.296,64.846,460.283,64.846z"/>
	<path fill="#FFFFFF" d="M475.302,44.783v-8.511h7.457v8.511H475.302z M475.302,115.057V59.752h7.457v55.305H475.302
		L475.302,115.057z"/>
	<path fill="#FFFFFF" d="M547.519,99.144c-0.492,2.241-1.332,4.394-2.521,6.46c-1.189,2.064-2.766,3.877-4.729,5.436
		c-1.959,1.559-4.297,2.801-7.01,3.729c-2.715,0.928-5.84,1.393-9.375,1.393c-4.412,0-8.271-0.701-11.582-2.102
		c-3.309-1.4-6.039-3.363-8.193-5.883c-2.15-2.522-3.771-5.514-4.857-8.981c-1.084-3.466-1.627-7.266-1.627-11.396
		c0-4.516,0.596-8.568,1.785-12.159c1.188-3.589,2.922-6.626,5.199-9.111c2.273-2.485,5.051-4.396,8.324-5.726
		s7.01-1.996,11.213-1.996c3.432,0,6.496,0.429,9.191,1.285c2.695,0.859,5.006,2.033,6.932,3.521
		c1.926,1.49,3.494,3.239,4.703,5.253c1.207,2.014,2.037,4.176,2.492,6.487l-7.51,0.733c-0.666-3.362-2.32-6.146-4.965-8.352
		c-2.643-2.205-6.328-3.309-11.053-3.309c-3.047,0-5.746,0.525-8.09,1.576c-2.35,1.049-4.324,2.556-5.938,4.517
		c-1.607,1.96-2.816,4.341-3.625,7.144c-0.805,2.801-1.205,5.987-1.205,9.559c0,7.6,1.662,13.357,4.988,17.279
		c3.328,3.922,7.982,5.883,13.971,5.883c4.762,0,8.492-1.131,11.188-3.387c2.697-2.26,4.432-5.314,5.201-9.166L547.519,99.144z"/>
	<path fill="#FFFFFF" d="M562.068,44.783v-8.511h7.459v8.511H562.068z M562.068,115.057V59.752h7.459v55.305H562.068
		L562.068,115.057z"/>
	<path fill="#FFFFFF" d="M599.83,115.949c-3.814,0-6.703-1.052-8.666-3.152c-1.961-2.103-2.939-5.305-2.939-9.61V65.58h-7.303
		v-5.828h7.461l2.414-12.711h4.885v12.711h12.604v5.828h-12.604v36.347c0,2.838,0.586,4.92,1.758,6.251
		c1.174,1.328,2.916,1.996,5.227,1.996c0.947,0,1.986-0.08,3.125-0.236c1.139-0.158,2.215-0.376,3.23-0.658v5.465
		c-1.4,0.35-2.869,0.637-4.41,0.863C603.068,115.834,601.476,115.949,599.83,115.949z"/>
	<path fill="#FFFFFF" d="M640.009,119.416c-1.365,3.465-2.705,6.478-4.02,9.033c-1.313,2.555-2.678,4.666-4.098,6.328
		c-1.416,1.664-2.932,2.904-4.541,3.729c-1.611,0.822-3.361,1.234-5.254,1.234c-2.555,0-4.691-0.156-6.406-0.473v-5.936
		c0.631,0.141,1.34,0.254,2.127,0.34c0.789,0.09,1.498,0.133,2.129,0.133c2.799,0,5.227-1.383,7.273-4.148
		c2.049-2.766,4.033-6.705,5.959-11.818l0.949-2.781l-22.063-55.305h7.879l11.502,30.985c0.07,0.072,0.271,0.554,0.604,1.443
		c0.334,0.896,0.727,1.954,1.182,3.18c0.457,1.261,0.965,2.593,1.523,3.991c0.525,1.438,1.016,2.781,1.471,4.044
		s0.842,2.313,1.156,3.151c0.313,0.875,0.488,1.385,0.523,1.522c0.035-0.139,0.201-0.639,0.5-1.497
		c0.297-0.857,0.674-1.891,1.129-3.097c0.453-1.21,0.963-2.517,1.523-3.916c0.525-1.399,1.031-2.713,1.523-3.938
		c0.453-1.227,0.84-2.267,1.154-3.125c0.314-0.855,0.49-1.355,0.523-1.498l11.713-31.248h7.826L640.009,119.416z"/>
</g>
</svg>
