<?xml version="1.0" encoding="UTF-8"?><svg xmlns="http://www.w3.org/2000/svg" xmlns:xlink="http://www.w3.org/1999/xlink" version="1.1" x="0px" y="0px" viewBox="0 0 100 100" enable-background="new 0 0 100 100" xml:space="preserve"><path fill="#36373B" d="M80.64,70.73c-4.874-2.292-7.353-2.751-7.524-2.843c-0.147-0.079-8.31-2.223-12.055-4.26  c-0.88-0.564-1.433-0.985-1.433-0.985v-0.571h-0.002v-3.48c0,0,10.992,0.337,16.207-4.99c0,0-7.59-2.15-6.226-15.966  c1.364-13.816-1.701-25.947-12.805-24.92c0,0-4.814-5.793-14.394-2.15c-3.29,1.252-12.115,4.413-11.666,23.556  c0.449,19.143-6.804,19.256-6.804,19.256s3.739,5.44,16.431,5.327v3.891c0,0-0.552,0.421-1.433,0.985  c-3.745,2.037-11.908,4.181-12.055,4.26c-0.171,0.092-2.651,0.55-7.524,2.843c-4.874,2.293-5.13,7.275-5.13,7.275v4.403  C24.983,87.655,37.134,90.637,50,90.637s25.017-2.982,35.771-8.276v-4.356C85.77,78.005,85.514,73.023,80.64,70.73z"></path></svg>
