<svg xmlns="http://www.w3.org/2000/svg" xmlns:xlink="http://www.w3.org/1999/xlink" version="1.1" x="0px" y="0px" viewBox="0 0 100 100" enable-background="new 0 0 100 100" xml:space="preserve" width="128px" height="128px"><path fill="#36373B" d="M85.751,78.861c0.039-4.053-0.914-10.203-6.796-11.697c-8.964-2.277-16.401-5.749-16.401-5.749  c-1.469-2.023-1.732-6.258-1.732-6.258c2.805-3.016,4.049-6.792,4.572-9.986c0.186,0.137,0.399,0.227,0.635,0.221  c0.842-0.018,1.971-1.25,3.188-5.92c1.532-5.879,0.094-7.038-1.296-7.027c-0.32,0.002-0.372-0.004-0.651,0.08l-0.004-0.128  c0,0,4.121-13.739-5.792-19.781c0,0,1.741-1.41,1.607-3.441c0,0-4.544,0.515-8.9,0.524c-1.979,0.005-3.92-0.097-5.376-0.397  c-0.582-0.12-1.171-0.168-1.755-0.153c-4.09,0.104-8.009,3.288-8.699,6.362c0,0-0.06-0.005-0.17-0.005  c-1.292-0.002-9.414,0.618-5.517,16.945c0,0,0.004,0.022,0.009,0.061c-0.189-0.04-0.386-0.066-0.586-0.068  c-1.395-0.018-2.844,1.132-1.308,7.027c1.228,4.71,2.364,5.924,3.209,5.92c0.282-0.001,0.53-0.137,0.739-0.323  c0.514,3.22,1.757,7.048,4.598,10.098l-0.151-0.009c0,0-0.232,3.75-1.483,5.879c-0.054,0.027-7.717,3.859-16.649,6.13  c-5.896,1.496-6.839,7.672-6.795,11.725c-0.003,0.533,0.012,1.036,0.037,1.492l-0.007-0.002c0,0-0.003,0.195-0.001,0.524  c-0.002,0.302-0.001,1.041,0.033,1.959c10.762,5.118,22.85,7.991,35.626,7.991c12.815,0,24.937-2.891,35.724-8.038  c0.032-0.889,0.033-1.605,0.031-1.906c0-0.066,0-0.126,0-0.181C85.73,80.178,85.755,79.544,85.751,78.861z" style="color: rgb(255, 255, 255);"></path></svg>
