<?xml version="1.0" encoding="UTF-8"?>
<svg xmlns="http://www.w3.org/2000/svg" xmlns:xlink="http://www.w3.org/1999/xlink" version="1.1" x="0px" y="0px" viewBox="0 0 48 48" enable-background="new 0 0 48 48" xml:space="preserve"><g><path fill="#bbd2e6" d="M39.1,40.1H8.9c-0.6,0-1-0.4-1-1V8.9c0-0.6,0.4-1,1-1h30.2c0.6,0,1,0.4,1,1v30.2   C40.1,39.7,39.7,40.1,39.1,40.1z M9.9,38.1h28.2V9.9H9.9V38.1z"/><path fill="#bbd2e6" d="M32.4,33.4H15.6c-0.6,0-1-0.4-1-1V15.6c0-0.6,0.4-1,1-1h16.7c0.6,0,1,0.4,1,1v16.7   C33.4,32.9,32.9,33.4,32.4,33.4z M16.6,31.4h14.7V16.6H16.6V31.4z"/><g><g><path fill="#bbd2e6" d="M13.6,6.5c-0.6,0-1-0.4-1-1v-4c0-0.6,0.4-1,1-1c0.6,0,1,0.4,1,1v4C14.6,6.1,14.2,6.5,13.6,6.5z"/><path fill="#bbd2e6" d="M18.8,6.5c-0.6,0-1-0.4-1-1v-4c0-0.6,0.4-1,1-1c0.6,0,1,0.4,1,1v4C19.8,6.1,19.4,6.5,18.8,6.5z"/><path fill="#bbd2e6" d="M24,6.5c-0.6,0-1-0.4-1-1v-4c0-0.6,0.4-1,1-1s1,0.4,1,1v4C25,6.1,24.6,6.5,24,6.5z"/><path fill="#bbd2e6" d="M29.2,6.5c-0.6,0-1-0.4-1-1v-4c0-0.6,0.4-1,1-1s1,0.4,1,1v4C30.2,6.1,29.7,6.5,29.2,6.5z"/><path fill="#bbd2e6" d="M34.4,6.5c-0.6,0-1-0.4-1-1v-4c0-0.6,0.4-1,1-1c0.6,0,1,0.4,1,1v4C35.4,6.1,34.9,6.5,34.4,6.5z"/></g><g><path fill="#bbd2e6" d="M13.6,47.5c-0.6,0-1-0.4-1-1v-4c0-0.6,0.4-1,1-1c0.6,0,1,0.4,1,1v4C14.6,47.1,14.2,47.5,13.6,47.5z"/><path fill="#bbd2e6" d="M18.8,47.5c-0.6,0-1-0.4-1-1v-4c0-0.6,0.4-1,1-1c0.6,0,1,0.4,1,1v4C19.8,47.1,19.4,47.5,18.8,47.5z"/><path fill="#bbd2e6" d="M24,47.5c-0.6,0-1-0.4-1-1v-4c0-0.6,0.4-1,1-1s1,0.4,1,1v4C25,47.1,24.6,47.5,24,47.5z"/><path fill="#bbd2e6" d="M29.2,47.5c-0.6,0-1-0.4-1-1v-4c0-0.6,0.4-1,1-1s1,0.4,1,1v4C30.2,47.1,29.7,47.5,29.2,47.5z"/><path fill="#bbd2e6" d="M34.4,47.5c-0.6,0-1-0.4-1-1v-4c0-0.6,0.4-1,1-1c0.6,0,1,0.4,1,1v4C35.4,47.1,34.9,47.5,34.4,47.5z"/></g></g><g><g><path fill="#bbd2e6" d="M46.5,14.6h-4c-0.6,0-1-0.4-1-1s0.4-1,1-1h4c0.6,0,1,0.4,1,1S47.1,14.6,46.5,14.6z"/><path fill="#bbd2e6" d="M46.5,19.8h-4c-0.6,0-1-0.4-1-1c0-0.6,0.4-1,1-1h4c0.6,0,1,0.4,1,1C47.5,19.4,47.1,19.8,46.5,19.8z"/><path fill="#bbd2e6" d="M46.5,25h-4c-0.6,0-1-0.4-1-1c0-0.6,0.4-1,1-1h4c0.6,0,1,0.4,1,1C47.5,24.6,47.1,25,46.5,25z"/><path fill="#bbd2e6" d="M46.5,30.2h-4c-0.6,0-1-0.4-1-1c0-0.6,0.4-1,1-1h4c0.6,0,1,0.4,1,1C47.5,29.7,47.1,30.2,46.5,30.2z"/><path fill="#bbd2e6" d="M46.5,35.4h-4c-0.6,0-1-0.4-1-1c0-0.6,0.4-1,1-1h4c0.6,0,1,0.4,1,1C47.5,34.9,47.1,35.4,46.5,35.4z"/></g><g><path fill="#bbd2e6" d="M5.5,14.6h-4c-0.6,0-1-0.4-1-1s0.4-1,1-1h4c0.6,0,1,0.4,1,1S6.1,14.6,5.5,14.6z"/><path fill="#bbd2e6" d="M5.5,19.8h-4c-0.6,0-1-0.4-1-1c0-0.6,0.4-1,1-1h4c0.6,0,1,0.4,1,1C6.5,19.4,6.1,19.8,5.5,19.8z"/><path fill="#bbd2e6" d="M5.5,25h-4c-0.6,0-1-0.4-1-1c0-0.6,0.4-1,1-1h4c0.6,0,1,0.4,1,1C6.5,24.6,6.1,25,5.5,25z"/><path fill="#bbd2e6" d="M5.5,30.2h-4c-0.6,0-1-0.4-1-1c0-0.6,0.4-1,1-1h4c0.6,0,1,0.4,1,1C6.5,29.7,6.1,30.2,5.5,30.2z"/><path fill="#bbd2e6" d="M5.5,35.4h-4c-0.6,0-1-0.4-1-1c0-0.6,0.4-1,1-1h4c0.6,0,1,0.4,1,1C6.5,34.9,6.1,35.4,5.5,35.4z"/></g></g></g></svg>
