<?xml version="1.0" encoding="UTF-8"?>
<svg xmlns="http://www.w3.org/2000/svg" xmlns:xlink="http://www.w3.org/1999/xlink" viewBox="0 0 50 60" version="1.1" x="0px" y="0px" width="128px" height="128px"><title>Group 239</title><desc>Created with Sketch.</desc><g stroke="none" stroke-width="1" fill="none" fill-rule="evenodd"><g transform="translate(-965.000000, -3167.000000)" fill="#bbd2e6"><g transform="translate(965.000000, 3167.000000)"><path d="M6.018,58.003 L44.018,58.003 L44.018,52.003 L6.018,52.003 L6.018,58.003 Z M45.018,60.003 L5.018,60.003 C4.465,60.003 4.018,59.556 4.018,59.003 L4.018,51.003 C4.018,50.451 4.465,50.003 5.018,50.003 L45.018,50.003 C45.571,50.003 46.018,50.451 46.018,51.003 L46.018,59.003 C46.018,59.556 45.571,60.003 45.018,60.003 L45.018,60.003 Z" style="color: rgb(187, 210, 230); fill: rgb(187, 210, 230);"></path><path d="M11.262,50.0035 L38.774,50.0035 L28.214,2.0035 L21.822,2.0035 L11.262,50.0035 Z M40.018,52.0035 L10.018,52.0035 C9.715,52.0035 9.428,51.8655 9.239,51.6305 C9.049,51.3945 8.976,51.0845 9.041,50.7885 L20.041,0.7885 C20.142,0.3295 20.548,0.0035 21.018,0.0035 L29.018,0.0035 C29.488,0.0035 29.894,0.3295 29.994,0.7885 L40.994,50.7885 C41.06,51.0845 40.987,51.3945 40.797,51.6305 C40.608,51.8655 40.321,52.0035 40.018,52.0035 L40.018,52.0035 Z" style="color: rgb(187, 210, 230); fill: rgb(187, 210, 230);"></path><path d="M2.9387,31.0035 L47.0967,31.0035 L41.4977,23.0035 L8.5387,23.0035 L2.9387,31.0035 Z M49.0177,33.0035 L1.0177,33.0035 C0.6447,33.0035 0.3027,32.7965 0.1307,32.4655 C-0.0413,32.1345 -0.0153,31.7355 0.1987,31.4305 L7.1987,21.4305 C7.3857,21.1625 7.6917,21.0035 8.0177,21.0035 L42.0177,21.0035 C42.3437,21.0035 42.6497,21.1625 42.8367,21.4305 L49.8367,31.4305 C50.0507,31.7355 50.0777,32.1345 49.9047,32.4655 C49.7327,32.7965 49.3907,33.0035 49.0177,33.0035 L49.0177,33.0035 Z" style="color: rgb(187, 210, 230); fill: rgb(187, 210, 230);"></path><path d="M12.886,15.0035 L37.15,15.0035 L34.483,11.0035 L15.553,11.0035 L12.886,15.0035 Z M39.018,17.0035 L11.018,17.0035 C10.649,17.0035 10.31,16.8005 10.136,16.4755 C9.962,16.1495 9.982,15.7555 10.186,15.4485 L14.186,9.4485 C14.371,9.1705 14.684,9.0035 15.018,9.0035 L35.018,9.0035 C35.352,9.0035 35.664,9.1705 35.85,9.4485 L39.85,15.4485 C40.054,15.7555 40.073,16.1495 39.9,16.4755 C39.726,16.8005 39.387,17.0035 39.018,17.0035 L39.018,17.0035 Z" style="color: rgb(187, 210, 230); fill: rgb(187, 210, 230);"></path><path d="M33.637,23.0035 C33.414,23.0035 33.189,22.9295 33.003,22.7755 L18.403,10.7755 C18.177,10.5915 18.044,10.3175 18.037,10.0255 C18.031,9.7345 18.152,9.4555 18.367,9.2615 L28.348,0.2615 C28.757,-0.1095 29.39,-0.0775 29.76,0.3335 C30.13,0.7435 30.098,1.3765 29.688,1.7455 L20.57,9.9685 L34.273,21.2315 C34.699,21.5815 34.761,22.2115 34.41,22.6385 C34.213,22.8795 33.926,23.0035 33.637,23.0035" style="color: rgb(187, 210, 230); fill: rgb(187, 210, 230);"></path><path d="M16.3987,23.0035 C16.1097,23.0035 15.8227,22.8795 15.6257,22.6385 C15.2747,22.2115 15.3367,21.5815 15.7627,21.2315 L29.4657,9.9685 L20.3477,1.7455 C19.9377,1.3765 19.9057,0.7435 20.2757,0.3335 C20.6447,-0.0775 21.2777,-0.1095 21.6877,0.2615 L31.6687,9.2615 C31.8837,9.4555 32.0047,9.7345 31.9987,10.0255 C31.9917,10.3175 31.8587,10.5915 31.6327,10.7755 L17.0327,22.7755 C16.8467,22.9295 16.6217,23.0035 16.3987,23.0035" style="color: rgb(187, 210, 230); fill: rgb(187, 210, 230);"></path><path d="M14.1975,33.0035 C14.1525,33.0035 14.1075,33.0005 14.0625,32.9945 C13.7655,32.9535 13.5045,32.7835 13.3465,32.5285 L7.1675,22.5285 C6.8775,22.0595 7.0225,21.4425 7.4925,21.1525 C7.9595,20.8615 8.5775,21.0065 8.8685,21.4785 L14.4105,30.4445 L24.3395,21.2695 C24.7435,20.8945 25.3765,20.9185 25.7525,21.3245 C26.1275,21.7305 26.1015,22.3625 25.6965,22.7375 L14.8765,32.7375 C14.6905,32.9095 14.4475,33.0035 14.1975,33.0035" style="color: rgb(187, 210, 230); fill: rgb(187, 210, 230);"></path><path d="M35.8381,33.0035 C35.5881,33.0035 35.3451,32.9095 35.1591,32.7375 L24.3391,22.7375 C23.9341,22.3625 23.9081,21.7305 24.2831,21.3245 C24.6581,20.9185 25.2911,20.8945 25.6961,21.2695 L35.6251,30.4445 L41.1671,21.4785 C41.4581,21.0065 42.0751,20.8615 42.5431,21.1525 C43.0131,21.4425 43.1581,22.0595 42.8681,22.5285 L36.6891,32.5285 C36.5311,32.7835 36.2701,32.9535 35.9731,32.9945 C35.9281,33.0005 35.8831,33.0035 35.8381,33.0035" style="color: rgb(187, 210, 230); fill: rgb(187, 210, 230);"></path><path d="M35.0178,52.0035 C34.9108,52.0035 34.7998,51.9855 34.6928,51.9485 L11.4508,43.9575 C11.0638,43.8245 10.7968,43.4695 10.7768,43.0615 C10.7568,42.6525 10.9878,42.2735 11.3598,42.1035 L35.4218,31.0945 C35.9248,30.8635 36.5168,31.0855 36.7468,31.5875 C36.9768,32.0895 36.7558,32.6835 36.2538,32.9125 L14.4678,42.8805 L35.3428,50.0585 C35.8658,50.2375 36.1428,50.8065 35.9628,51.3285 C35.8208,51.7425 35.4328,52.0035 35.0178,52.0035" style="color: rgb(187, 210, 230); fill: rgb(187, 210, 230);"></path><path d="M15.0178,52.0035 C14.6028,52.0035 14.2148,51.7435 14.0728,51.3285 C13.8928,50.8065 14.1698,50.2375 14.6928,50.0585 L35.5678,42.8795 L13.7818,32.9125 C13.2798,32.6835 13.0588,32.0895 13.2888,31.5875 C13.5178,31.0865 14.1098,30.8635 14.6138,31.0945 L38.6758,42.1025 C39.0478,42.2725 39.2788,42.6515 39.2588,43.0605 C39.2388,43.4685 38.9718,43.8235 38.5848,43.9565 L15.3428,51.9485 C15.2358,51.9855 15.1248,52.0035 15.0178,52.0035" style="color: rgb(187, 210, 230); fill: rgb(187, 210, 230);"></path><path d="M10.0178,56.0035 L5.0178,56.0035 C4.4648,56.0035 4.0178,55.5565 4.0178,55.0035 C4.0178,54.4505 4.4648,54.0035 5.0178,54.0035 L10.0178,54.0035 C10.5708,54.0035 11.0178,54.4505 11.0178,55.0035 C11.0178,55.5565 10.5708,56.0035 10.0178,56.0035" style="color: rgb(187, 210, 230); fill: rgb(187, 210, 230);"></path><path d="M45.0178,56.0035 L40.0178,56.0035 C39.4648,56.0035 39.0178,55.5565 39.0178,55.0035 C39.0178,54.4505 39.4648,54.0035 40.0178,54.0035 L45.0178,54.0035 C45.5708,54.0035 46.0178,54.4505 46.0178,55.0035 C46.0178,55.5565 45.5708,56.0035 45.0178,56.0035" style="color: rgb(187, 210, 230); fill: rgb(187, 210, 230);"></path></g></g></g></svg>
